<svg width="40" height="40" viewBox="0 0 40 40" fill="none" xmlns="http://www.w3.org/2000/svg">
<g clip-path="url(#clip0)">
<path d="M39.9922 9.86499C39.9455 9.43476 39.6781 9.05397 39.2785 8.86749L20.5285 0.11749C20.1934 -0.0388379 19.8064 -0.0388379 19.4713 0.11749L0.721328 8.86749C0.321797 9.05397 0.0544531 9.43468 0.00765625 9.86499C0.00664062 9.87397 0 9.99366 0 10.0002V31.2502C0 31.7613 0.311172 32.221 0.785781 32.4108L19.5358 39.9108C19.6848 39.9704 19.8424 40.0002 20 40.0002C20.1576 40.0002 20.3152 39.9705 20.4642 39.9108L39.2142 32.4108C39.6888 32.221 40 31.7613 40 31.2502V10.0002C40 9.99366 39.9932 9.8739 39.9922 9.86499V9.86499ZM20 2.6296L35.605 9.91194L29.5961 12.3155L13.6974 5.57085L20 2.6296ZM10.6492 6.99335L26.3013 13.6334L20 16.1539L4.395 9.91194L10.6492 6.99335ZM2.5 11.8465L18.75 18.3465V36.9039L2.5 30.4039V11.8465ZM21.25 36.904V18.3465L37.5 11.8465V30.4039L21.25 36.904Z" fill="#FC0000"/>
</g>
<defs>
<clipPath id="clip0">
<rect width="40" height="40" fill="white"/>
</clipPath>
</defs>
</svg>
