<svg width="60" height="60" viewBox="0 0 60 60" fill="none" xmlns="http://www.w3.org/2000/svg">
<g clip-path="url(#clip0)">
<path d="M59.9883 14.7974C59.9182 14.152 59.5172 13.5808 58.9178 13.3011L30.7928 0.176113C30.2902 -0.0583789 29.7096 -0.0583789 29.207 0.176113L1.08199 13.3011C0.482695 13.5808 0.0816797 14.1519 0.0114844 14.7974C0.00996094 14.8108 0 14.9904 0 15.0002V46.8752C0 47.6419 0.466758 48.3314 1.17867 48.616L29.3037 59.866C29.5271 59.9554 29.7636 60.0002 30 60.0002C30.2364 60.0002 30.4728 59.9556 30.6963 59.866L58.8213 48.616C59.5332 48.3314 60 47.6419 60 46.8752V15.0002C60 14.9904 59.9898 14.8107 59.9883 14.7974V14.7974ZM30 3.94428L53.4075 14.8678L44.3941 18.4732L20.5461 8.35615L30 3.94428ZM15.9738 10.4899L39.4519 20.45L30 24.2307L6.5925 14.8678L15.9738 10.4899ZM3.75 17.7696L28.125 27.5196V55.3557L3.75 45.6057V17.7696ZM31.875 55.3558V27.5196L56.25 17.7696V45.6057L31.875 55.3558Z" fill="#FC0000"/>
</g>
<defs>
<clipPath id="clip0">
<rect width="60" height="60" fill="white"/>
</clipPath>
</defs>
</svg>
