<svg width="40" height="40" viewBox="0 0 40 40" fill="none" xmlns="http://www.w3.org/2000/svg">
<g clip-path="url(#clip0)">
<path d="M32.1836 8.76663C31.8919 8.76663 31.5969 8.66496 31.3602 8.45662C28.2052 5.68996 24.1702 4.16663 20.0002 4.16663C16.0702 4.16663 12.2269 5.54496 9.1769 8.04996C8.6419 8.48829 7.85356 8.40996 7.4169 7.87662C6.98023 7.34329 7.0569 6.55496 7.59023 6.11663C11.0852 3.24663 15.4936 1.66663 20.0002 1.66663C24.7769 1.66663 29.3969 3.40996 33.0086 6.57663C33.5269 7.03163 33.5786 7.82163 33.1236 8.34163C32.8769 8.62163 32.5302 8.76663 32.1836 8.76663Z" fill="#FC0000"/>
<path d="M12.0834 8.3333H7.91675C7.22675 8.3333 6.66675 7.7733 6.66675 7.0833V2.91663C6.66675 2.41163 6.97175 1.95497 7.43841 1.76163C7.90508 1.5683 8.44341 1.67497 8.80008 2.0333L12.9667 6.19997C13.3234 6.55663 13.4317 7.09497 13.2384 7.56163C13.0451 8.0283 12.5884 8.3333 12.0834 8.3333V8.3333Z" fill="#FC0000"/>
<path d="M20.1999 38.3334C15.4216 38.3334 10.8016 36.5901 7.19161 33.4234C6.67161 32.9684 6.62161 32.1784 7.07661 31.6584C7.53161 31.1401 8.32161 31.0884 8.84161 31.5434C11.9949 34.3101 16.0283 35.8334 20.1999 35.8334C24.1299 35.8334 27.9733 34.4551 31.0233 31.9501C31.5566 31.5101 32.3433 31.5884 32.7833 32.1234C33.2216 32.6567 33.1433 33.4451 32.6099 33.8834C29.1149 36.7534 24.7066 38.3334 20.1999 38.3334V38.3334Z" fill="#FC0000"/>
<path d="M32.0834 38.3333C31.7584 38.3333 31.4384 38.2066 31.2001 37.9666L27.0334 33.8C26.6768 33.4433 26.5684 32.905 26.7618 32.4383C26.9551 31.9716 27.4118 31.6666 27.9168 31.6666H32.0834C32.7734 31.6666 33.3334 32.2266 33.3334 32.9166V37.0833C33.3334 37.5883 33.0284 38.045 32.5618 38.2383C32.4068 38.3016 32.2451 38.3333 32.0834 38.3333Z" fill="#FC0000"/>
<path d="M8.33342 20C10.6346 20 12.5001 18.1345 12.5001 15.8333C12.5001 13.5321 10.6346 11.6666 8.33342 11.6666C6.03223 11.6666 4.16675 13.5321 4.16675 15.8333C4.16675 18.1345 6.03223 20 8.33342 20Z" fill="#FC0000"/>
<path d="M12.0833 21.6666H4.58333C2.055 21.6666 0 23.7216 0 26.25V27.0833C0 27.7733 0.56 28.3333 1.25 28.3333H15.4167C16.1067 28.3333 16.6667 27.7733 16.6667 27.0833V26.25C16.6667 23.7216 14.6117 21.6666 12.0833 21.6666Z" fill="#FC0000"/>
<path d="M31.6667 20C33.9678 20 35.8333 18.1345 35.8333 15.8333C35.8333 13.5321 33.9678 11.6666 31.6667 11.6666C29.3655 11.6666 27.5 13.5321 27.5 15.8333C27.5 18.1345 29.3655 20 31.6667 20Z" fill="#FC0000"/>
<path d="M35.4166 21.6666H27.9166C25.3883 21.6666 23.3333 23.7216 23.3333 26.25V27.0833C23.3333 27.7733 23.8933 28.3333 24.5833 28.3333H38.7499C39.4399 28.3333 39.9999 27.7733 39.9999 27.0833V26.25C39.9999 23.7216 37.9449 21.6666 35.4166 21.6666Z" fill="#FC0000"/>
</g>
<defs>
<clipPath id="clip0">
<rect width="40" height="40" fill="white"/>
</clipPath>
</defs>
</svg>
