<svg width="35" height="35" viewBox="0 0 35 35" fill="none" xmlns="http://www.w3.org/2000/svg">
<g clip-path="url(#clip0)">
<path d="M26.9792 13.8535H6.56206C5.35597 13.8535 4.37451 14.835 4.37451 16.0411V17.4994C4.37451 22.7028 7.24895 27.4221 11.8749 29.8153C12.2322 29.9991 12.6726 29.8605 12.8578 29.5018C13.0416 29.1444 12.903 28.704 12.5443 28.5188C8.40542 26.3779 5.83286 22.156 5.83286 17.4993V16.041C5.83286 15.6385 6.15955 15.3118 6.56206 15.3118H26.9792C27.3817 15.3118 27.7084 15.6385 27.7084 16.041V17.4993C27.7084 22.1559 25.1359 26.3779 20.9956 28.5173C20.6368 28.7025 20.4983 29.1429 20.682 29.5002C20.8118 29.7511 21.067 29.8954 21.331 29.8954C21.4447 29.8954 21.5585 29.8692 21.6649 29.8138C26.2923 27.422 29.1668 22.7042 29.1668 17.4993V16.0409C29.1668 14.835 28.1852 13.8535 26.9792 13.8535Z" fill="#FC0000"/>
<path d="M33.4877 28.8864C33.3739 28.6137 33.1085 28.4358 32.8139 28.4358H0.729838C0.435271 28.4358 0.169825 28.6137 0.0560722 28.8864C-0.0576804 29.1591 0.00500658 29.4727 0.213576 29.6813L1.84843 31.3176C2.81389 32.2815 4.09429 32.8124 5.45789 32.8124H28.083C29.4466 32.8124 30.7285 32.2816 31.6954 31.3176L33.3302 29.6813C33.5387 29.4727 33.6014 29.1591 33.4877 28.8864ZM30.6629 30.2865C29.9745 30.9748 29.0572 31.354 28.0845 31.354H5.45789C4.48518 31.354 3.56784 30.9748 2.87952 30.2865L2.4887 29.8956H31.0537L30.6629 30.2865Z" fill="#FC0000"/>
<path d="M33.5897 17.2969C31.6253 16.0339 28.4869 17.4048 28.1354 17.5638C27.7693 17.7314 27.606 18.1631 27.7737 18.5307C27.9414 18.8982 28.3716 19.06 28.7406 18.8924C29.4435 18.573 31.6981 17.8161 32.8007 18.5263C33.298 18.8457 33.5415 19.4655 33.5415 20.4163C33.5415 23.336 27.6526 25.1006 25.379 25.5352L24.8627 25.6373C24.4675 25.7146 24.2108 26.0981 24.2882 26.4933C24.3567 26.8404 24.6615 27.081 25.0027 27.081C25.0494 27.081 25.096 27.0767 25.1442 27.0665L25.6561 26.9659C26.0381 26.8929 34.9998 25.1356 34.9998 20.4163C34.9999 18.9492 34.5245 17.9006 33.5897 17.2969Z" fill="#FC0000"/>
<path d="M22.4477 7.74589C23.6334 6.26417 23.6334 3.94393 22.4477 2.4622C22.1954 2.14719 21.7389 2.09469 21.4225 2.34845C21.1075 2.60077 21.0564 3.05865 21.3087 3.37366C22.0598 4.31137 22.0598 5.89666 21.3073 6.8373C20.1202 8.31903 20.1202 10.6393 21.3073 12.121C21.4517 12.3018 21.6631 12.3952 21.8775 12.3952C22.0364 12.3952 22.1983 12.3427 22.3325 12.2347C22.6475 11.9824 22.6986 11.523 22.4463 11.2095C21.6938 10.2718 21.6938 8.68654 22.4477 7.74589Z" fill="#FC0000"/>
<path d="M18.0667 7.74578C19.2538 6.26405 19.2538 3.94381 18.0667 2.46209C17.8159 2.14708 17.3565 2.09601 17.0415 2.34833C16.7265 2.60065 16.6755 3.06004 16.9278 3.37354C17.6803 4.31125 17.6803 5.89654 16.9263 6.83719C15.7407 8.31891 15.7407 10.6392 16.9263 12.1209C17.0707 12.3017 17.2822 12.3951 17.4965 12.3951C17.6555 12.3951 17.8159 12.3426 17.9516 12.2346C18.2666 11.9823 18.3176 11.5244 18.0653 11.2094C17.3142 10.2716 17.3142 8.68642 18.0667 7.74578Z" fill="#FC0000"/>
<path d="M13.6977 7.74736C14.8834 6.26563 14.8834 3.94539 13.6977 2.46367C13.4469 2.14866 12.9889 2.09616 12.6725 2.34991C12.3589 2.60073 12.3079 3.06012 12.5587 3.37369C13.3098 4.3114 13.3098 5.89669 12.5573 6.83733C11.3702 8.31906 11.3702 10.6393 12.5573 12.121C12.7017 12.3018 12.9131 12.3952 13.1275 12.3952C13.2864 12.3952 13.4483 12.3427 13.5825 12.2363C13.8975 11.984 13.9486 11.5246 13.6963 11.2111C12.9438 10.2718 12.9438 8.688 13.6977 7.74736Z" fill="#FC0000"/>
</g>
<defs>
<clipPath id="clip0">
<rect width="35" height="35" fill="white"/>
</clipPath>
</defs>
</svg>
