<svg width="40" height="40" viewBox="0 0 40 40" fill="none" xmlns="http://www.w3.org/2000/svg">
<g clip-path="url(#clip0)">
<path d="M38.6424 18.4774L35.9187 17.2986L33.6057 12.7977C32.9806 11.5653 31.7124 10.7973 30.3282 10.8062H26.3452V9.68096C26.3452 7.64482 24.7199 5.98376 22.6838 5.98376H3.6441C1.60796 5.98376 0.00048176 7.65375 0.00048176 9.68096V26.9167C-0.0173791 28.158 0.973898 29.1761 2.21523 29.1939C2.22416 29.1939 2.23309 29.1939 2.25095 29.1939H2.72426C2.72426 29.2832 2.71533 29.319 2.71533 29.3725C2.7064 31.9266 4.76933 34.0074 7.32343 34.0164C9.87753 34.0253 11.9583 31.9624 11.9673 29.4083C11.9673 29.3904 11.9673 29.3815 11.9673 29.3636C11.9673 29.3011 11.9673 29.2743 11.9583 29.185H27.3455C27.3455 29.2743 27.3455 29.31 27.3455 29.3636C27.3365 31.9177 29.3995 33.9985 31.9536 34.0074C34.5077 34.0164 36.5884 31.9534 36.5974 29.3993C36.5974 29.3815 36.5974 29.3725 36.5974 29.3547C36.5974 29.2922 36.5974 29.2654 36.5974 29.1761H37.7494C38.9907 29.1761 39.9999 28.1669 39.9999 26.9256C39.9999 26.9167 39.9999 26.9077 39.9999 26.8899V20.5493C40.0177 19.6741 39.4819 18.8436 38.6424 18.4774ZM7.35022 32.2392C5.77847 32.2392 4.51035 30.9711 4.51035 29.3993C4.51035 27.8276 5.77847 26.5595 7.35022 26.5595C8.92198 26.5595 10.1901 27.8276 10.1901 29.3993C10.1901 30.9622 8.91305 32.2392 7.35022 32.2392ZM24.5592 27.4257H11.5386C10.7884 25.7914 9.14524 24.7466 7.35022 24.7555C5.54628 24.7466 3.91201 25.7825 3.16185 27.4257H2.25095C1.97411 27.4257 1.78657 27.2114 1.78657 26.9345V22.3354H24.5592V27.4257ZM24.5592 9.68989V20.5493H1.78657V9.68989C1.78657 8.64503 2.59924 7.77878 3.6441 7.77878H22.6838C23.7286 7.78771 24.5681 8.64503 24.5592 9.68096V9.68989ZM26.3452 12.6012H30.3282C31.0337 12.5923 31.6946 12.9763 32.025 13.6103L33.8111 17.0664H26.3452V12.6012V12.6012ZM31.9803 32.2392C30.4086 32.2392 29.1405 30.9711 29.1405 29.3993C29.1405 27.8276 30.4086 26.5595 31.9803 26.5595C33.5521 26.5595 34.8202 27.8276 34.8202 29.3993C34.8202 30.9622 33.5521 32.2392 31.9803 32.2392ZM38.2227 26.9345C38.2227 27.2114 38.0352 27.4257 37.7583 27.4257H36.1687C35.0881 25.1127 32.3376 24.1125 30.0246 25.1931C29.0422 25.6486 28.2474 26.4434 27.792 27.4257H26.3452V18.8525H35.0971L37.9369 20.1028C38.1155 20.1921 38.2316 20.3885 38.2227 20.585V26.9345Z" fill="#FC0000"/>
</g>
<defs>
<clipPath id="clip0">
<rect width="40" height="40" fill="white"/>
</clipPath>
</defs>
</svg>
