<svg width="60" height="60" viewBox="0 0 60 60" fill="none" xmlns="http://www.w3.org/2000/svg">
<g clip-path="url(#clip0)">
<path d="M57.9635 27.7161L53.8779 25.9479L50.4084 19.1965C49.4707 17.3479 47.5685 16.1959 45.4922 16.2093H39.5177V14.5214C39.5177 11.4672 37.0797 8.97565 34.0255 8.97565H5.46602C2.41182 8.97565 0.00060057 11.4806 0.00060057 14.5214V40.375C-0.0261907 42.237 1.46073 43.7641 3.32272 43.7909C3.33611 43.7909 3.34951 43.7909 3.3763 43.7909H4.08627C4.08627 43.9249 4.07288 43.9784 4.07288 44.0588C4.05948 47.89 7.15387 51.0112 10.985 51.0245C14.8162 51.0379 17.9374 47.9435 17.9508 44.1124C17.9508 44.0856 17.9508 44.0722 17.9508 44.0454C17.9508 43.9517 17.9508 43.9115 17.9374 43.7775H41.0181C41.0181 43.9115 41.0181 43.965 41.0181 44.0454C41.0047 47.8766 44.099 50.9978 47.9302 51.0112C51.7614 51.0245 54.8825 47.9302 54.8959 44.099C54.8959 44.0722 54.8959 44.0588 54.8959 44.032C54.8959 43.9383 54.8959 43.8981 54.8959 43.7641H56.624C58.486 43.7641 59.9997 42.2504 59.9997 40.3884C59.9997 40.375 59.9997 40.3616 59.9997 40.3348V30.8239C60.0265 29.5112 59.2227 28.2654 57.9635 27.7161ZM11.0252 48.3588C8.66758 48.3588 6.7654 46.4566 6.7654 44.099C6.7654 41.7414 8.66758 39.8392 11.0252 39.8392C13.3828 39.8392 15.285 41.7414 15.285 44.099C15.285 46.4432 13.3695 48.3588 11.0252 48.3588ZM36.8386 41.1386H17.3078C16.1825 38.6872 13.7177 37.1199 11.0252 37.1333C8.31929 37.1199 5.86789 38.6738 4.74266 41.1386H3.3763C2.96104 41.1386 2.67973 40.8171 2.67973 40.4018V33.5031H36.8386V41.1386ZM36.8386 14.5348V30.8239H2.67973V14.5348C2.67973 12.9675 3.89873 11.6682 5.46602 11.6682H34.0255C35.5928 11.6816 36.852 12.9675 36.8386 14.5214V14.5348ZM39.5177 18.9018H45.4922C46.5505 18.8884 47.5417 19.4644 48.0374 20.4155L50.7165 25.5996H39.5177V18.9018V18.9018ZM47.9704 48.3588C45.6128 48.3588 43.7106 46.4566 43.7106 44.099C43.7106 41.7414 45.6128 39.8392 47.9704 39.8392C50.328 39.8392 52.2302 41.7414 52.2302 44.099C52.2302 46.4432 50.328 48.3588 47.9704 48.3588ZM57.3339 40.4018C57.3339 40.8171 57.0526 41.1386 56.6374 41.1386H54.2529C52.6321 37.6691 48.5062 36.1688 45.0367 37.7897C43.5632 38.4728 42.371 39.665 41.6878 41.1386H39.5177V28.2788H52.6455L56.9053 30.1541C57.1732 30.2881 57.3473 30.5828 57.3339 30.8775V40.4018Z" fill="#FC0000"/>
</g>
<defs>
<clipPath id="clip0">
<rect width="60" height="60" fill="white"/>
</clipPath>
</defs>
</svg>
