<svg width="35" height="35" viewBox="0 0 35 35" fill="none" xmlns="http://www.w3.org/2000/svg">
<path d="M21.7833 18.2817C21.7819 18.2817 21.7819 18.2803 21.7819 18.2803C20.0844 17.5963 19.1 17.2463 18.2308 16.9532V4.40125C22.3112 4.67106 25.521 7.17062 25.521 10.2083C25.521 10.6108 25.8477 10.9375 26.2502 10.9375C26.6527 10.9375 26.9794 10.6108 26.9794 10.2083C26.9794 6.37724 23.1162 3.23312 18.2294 2.94437V0.729189C18.2294 0.326689 17.9027 0 17.5002 0C17.0977 0 16.771 0.326689 16.771 0.729189V2.94437C11.8841 3.23312 8.021 6.37731 8.021 10.2083C8.021 12.9835 10.0174 15.4802 13.2302 16.7241H13.2331C14.9233 17.3818 15.9004 17.7158 16.7725 18.006V30.5987C12.6892 30.3289 9.47938 27.8293 9.47938 24.7916C9.47938 24.3891 9.15269 24.0624 8.75019 24.0624C8.34769 24.0624 8.021 24.3891 8.021 24.7916C8.021 28.6227 11.8841 31.7668 16.771 32.0556V34.2707C16.771 34.6732 17.0977 34.9999 17.5002 34.9999C17.9027 34.9999 18.2294 34.6732 18.2294 34.2707V32.0556C23.1162 31.7668 26.9794 28.6226 26.9794 24.7916C26.9794 22.0194 24.9887 19.5271 21.7833 18.2817ZM16.771 16.4675C16.0199 16.2137 15.1289 15.8973 13.7581 15.365L13.7566 15.3636C11.1185 14.3428 9.47931 12.3667 9.47931 10.2084C9.47931 7.17069 12.6891 4.67106 16.771 4.40132V16.4675ZM18.2294 30.5987V18.4946C18.9775 18.7541 19.87 19.0822 21.235 19.6335C21.2364 19.6335 21.2379 19.6335 21.2408 19.6349C21.2422 19.6349 21.2437 19.6364 21.2452 19.6379C23.8819 20.6572 25.521 22.6333 25.521 24.7916C25.521 27.8294 22.3112 30.3289 18.2294 30.5987Z" fill="#FC0000"/>
</svg>
