<svg width="40" height="40" viewBox="0 0 40 40" fill="none" xmlns="http://www.w3.org/2000/svg">
<path d="M36.4844 16.4844H30.5469V8.28125C30.5469 5.05039 27.9184 2.42188 24.6875 2.42188H10.625C9.97781 2.42188 9.45312 2.94656 9.45312 3.59375V16.4844H3.51562C1.57711 16.4844 0 18.0615 0 20V27.0312C0 28.9698 1.57711 30.5469 3.51562 30.5469H9.45312V36.4062C9.45312 37.0534 9.97781 37.5781 10.625 37.5781H29.375C30.0222 37.5781 30.5469 37.0534 30.5469 36.4062V30.5469H36.4844C38.4229 30.5469 40 28.9698 40 27.0312V20C40 18.0615 38.4229 16.4844 36.4844 16.4844ZM28.0016 7.10938H25.8594V4.96719C26.8566 5.32086 27.6479 6.11219 28.0016 7.10938ZM11.7969 4.76562H23.5156V8.28125C23.5156 8.92844 24.0403 9.45312 24.6875 9.45312H28.2031V16.4844H11.7969V4.76562ZM28.2031 35.2344H11.7969V28.2031H28.2031V35.2344ZM37.6562 27.0312C37.6562 27.6774 37.1305 28.2031 36.4844 28.2031H30.5469V27.0312C30.5469 26.3841 30.0222 25.8594 29.375 25.8594H10.625C9.97781 25.8594 9.45312 26.3841 9.45312 27.0312V28.2031H3.51562C2.86945 28.2031 2.34375 27.6774 2.34375 27.0312V20C2.34375 19.3538 2.86945 18.8281 3.51562 18.8281H36.4844C37.1305 18.8281 37.6562 19.3538 37.6562 20V27.0312Z" fill="white"/>
<path d="M29.375 23.5156C30.0222 23.5156 30.5469 22.991 30.5469 22.3438C30.5469 21.6965 30.0222 21.1719 29.375 21.1719C28.7278 21.1719 28.2031 21.6965 28.2031 22.3438C28.2031 22.991 28.7278 23.5156 29.375 23.5156Z" fill="white"/>
<path d="M24.6875 23.5156C25.3347 23.5156 25.8594 22.991 25.8594 22.3438C25.8594 21.6965 25.3347 21.1719 24.6875 21.1719C24.0403 21.1719 23.5156 21.6965 23.5156 22.3438C23.5156 22.991 24.0403 23.5156 24.6875 23.5156Z" fill="white"/>
<path d="M24.6875 30.5469H15.3125C14.6653 30.5469 14.1406 31.0716 14.1406 31.7188C14.1406 32.3659 14.6653 32.8906 15.3125 32.8906H24.6875C25.3347 32.8906 25.8594 32.3659 25.8594 31.7188C25.8594 31.0716 25.3347 30.5469 24.6875 30.5469Z" fill="white"/>
</svg>
