<svg width="60" height="60" viewBox="0 0 60 60" fill="none" xmlns="http://www.w3.org/2000/svg">
<path d="M30 0C13.458 0 0 13.458 0 30C0 46.542 13.458 60 30 60C46.542 60 60 46.542 60 30C60 13.458 46.5422 0 30 0ZM30 56.7567C22.6507 56.7567 15.9843 53.7778 11.1439 48.9647C9.21094 47.0427 7.57003 44.8275 6.29238 42.393C4.34641 38.6857 3.24329 34.4695 3.24329 30C3.24329 15.2463 15.2463 3.24329 30 3.24329C36.998 3.24329 43.3759 5.94495 48.1488 10.3587C50.6235 12.6468 52.6669 15.3947 54.1404 18.4661C55.8168 21.9605 56.7567 25.8725 56.7567 30C56.7567 44.7537 44.7537 56.7567 30 56.7567Z" fill="#FC0000"/>
<path d="M20.2028 26.554C21.994 26.554 23.446 25.1019 23.446 23.3107C23.446 21.5195 21.994 20.0674 20.2028 20.0674C18.4115 20.0674 16.9595 21.5195 16.9595 23.3107C16.9595 25.1019 18.4115 26.554 20.2028 26.554Z" fill="#FC0000"/>
<path d="M40.2706 26.554C42.0619 26.554 43.5139 25.1019 43.5139 23.3107C43.5139 21.5195 42.0619 20.0674 40.2706 20.0674C38.4794 20.0674 37.0273 21.5195 37.0273 23.3107C37.0273 25.1019 38.4794 26.554 40.2706 26.554Z" fill="#FC0000"/>
<path d="M29.9427 46.6212C36.2172 46.6212 42.2305 43.4124 45.6734 38.0847L42.9493 36.3244C39.7877 41.2167 34.0047 43.9469 28.214 43.2788C23.7014 42.7585 19.5283 40.1586 17.0506 36.3244L14.3267 38.0847C17.3247 42.7244 22.3773 45.8704 27.8422 46.5008C28.5438 46.5817 29.2444 46.6212 29.9427 46.6212Z" fill="#FC0000"/>
</svg>
