<svg width="30" height="30" viewBox="0 0 30 30" fill="none" xmlns="http://www.w3.org/2000/svg">
<path d="M15 0C6.72901 0 0 6.72901 0 15C0 23.271 6.72901 30 15 30C23.271 30 30 23.271 30 15C30 6.72901 23.2711 0 15 0ZM15 28.3784C11.3254 28.3784 7.99217 26.8889 5.57197 24.4824C4.60547 23.5213 3.78502 22.4137 3.14619 21.1965C2.1732 19.3429 1.62164 17.2347 1.62164 15C1.62164 7.62314 7.62314 1.62164 15 1.62164C18.499 1.62164 21.688 2.97247 24.0744 5.17933C25.3117 6.3234 26.3335 7.69733 27.0702 9.23303C27.9084 10.9802 28.3784 12.9363 28.3784 15C28.3784 22.3769 22.3769 28.3784 15 28.3784Z" fill="#FC0000"/>
<path d="M10.1016 13.277C10.9972 13.277 11.7233 12.5509 11.7233 11.6553C11.7233 10.7597 10.9972 10.0337 10.1016 10.0337C9.20601 10.0337 8.47998 10.7597 8.47998 11.6553C8.47998 12.5509 9.20601 13.277 10.1016 13.277Z" fill="#FC0000"/>
<path d="M20.1353 13.277C21.0309 13.277 21.757 12.5509 21.757 11.6553C21.757 10.7597 21.0309 10.0337 20.1353 10.0337C19.2397 10.0337 18.5137 10.7597 18.5137 11.6553C18.5137 12.5509 19.2397 13.277 20.1353 13.277Z" fill="#FC0000"/>
<path d="M14.9711 23.3105C18.1084 23.3105 21.115 21.7061 22.8365 19.0423L21.4744 18.1621C19.8936 20.6083 17.0021 21.9734 14.1068 21.6393C11.8504 21.3791 9.7639 20.0792 8.52506 18.1621L7.16309 19.0423C8.66209 21.3621 11.1884 22.9351 13.9209 23.2503C14.2717 23.2908 14.6219 23.3105 14.9711 23.3105Z" fill="#FC0000"/>
</svg>
