<svg width="30" height="30" viewBox="0 0 30 30" fill="none" xmlns="http://www.w3.org/2000/svg">
<path d="M17.8711 15C17.8711 16.5857 16.5857 17.8711 15 17.8711C13.4143 17.8711 12.1289 16.5857 12.1289 15C12.1289 13.4143 13.4143 12.1289 15 12.1289C16.5857 12.1289 17.8711 13.4143 17.8711 15Z" fill="#DD2727"/>
<path d="M21.7147 9.92027C21.5766 9.54628 21.3565 9.20776 21.0704 8.9299C20.7925 8.6438 20.4542 8.42361 20.08 8.2856C19.7765 8.16772 19.3206 8.02742 18.4808 7.9892C17.5724 7.94777 17.3 7.93884 15.0002 7.93884C12.7001 7.93884 12.4278 7.94754 11.5196 7.98897C10.6798 8.02742 10.2236 8.16772 9.92038 8.2856C9.54616 8.42361 9.20764 8.6438 8.93001 8.9299C8.64391 9.20776 8.42372 9.54605 8.28548 9.92027C8.1676 10.2238 8.0273 10.6799 7.98907 11.5197C7.94765 12.4279 7.93872 12.7003 7.93872 15.0003C7.93872 17.3001 7.94765 17.5725 7.98907 18.4809C8.0273 19.3207 8.1676 19.7766 8.28548 20.0801C8.42372 20.4543 8.64368 20.7926 8.92978 21.0705C9.20764 21.3566 9.54593 21.5768 9.92015 21.7148C10.2236 21.8329 10.6798 21.9732 11.5196 22.0114C12.4278 22.0528 12.6999 22.0615 15 22.0615C17.3002 22.0615 17.5726 22.0528 18.4806 22.0114C19.3203 21.9732 19.7765 21.8329 20.08 21.7148C20.8312 21.425 21.4249 20.8313 21.7147 20.0801C21.8325 19.7766 21.9728 19.3207 22.0113 18.4809C22.0527 17.5725 22.0614 17.3001 22.0614 15.0003C22.0614 12.7003 22.0527 12.4279 22.0113 11.5197C21.9731 10.6799 21.8328 10.2238 21.7147 9.92027V9.92027ZM15.0002 19.423C12.5573 19.423 10.577 17.4429 10.577 15.0001C10.577 12.5572 12.5573 10.5772 15.0002 10.5772C17.4428 10.5772 19.4231 12.5572 19.4231 15.0001C19.4231 17.4429 17.4428 19.423 15.0002 19.423ZM19.598 11.4359C19.0271 11.4359 18.5643 10.9731 18.5643 10.4023C18.5643 9.83147 19.0271 9.36867 19.598 9.36867C20.1688 9.36867 20.6316 9.83147 20.6316 10.4023C20.6314 10.9731 20.1688 11.4359 19.598 11.4359Z" fill="#DD2727"/>
<path d="M15 0C6.717 0 0 6.717 0 15C0 23.283 6.717 30 15 30C23.283 30 30 23.283 30 15C30 6.717 23.283 0 15 0ZM23.5613 18.5511C23.5197 19.468 23.3739 20.094 23.161 20.6419C22.7135 21.7989 21.7989 22.7135 20.6419 23.161C20.0942 23.3739 19.468 23.5194 18.5513 23.5613C17.6328 23.6032 17.3394 23.6133 15.0002 23.6133C12.6608 23.6133 12.3676 23.6032 11.4489 23.5613C10.5322 23.5194 9.90601 23.3739 9.35829 23.161C8.78334 22.9447 8.26286 22.6057 7.83257 22.1674C7.39449 21.7374 7.05551 21.2167 6.83922 20.6419C6.62636 20.0942 6.48056 19.468 6.4389 18.5513C6.39656 17.6326 6.38672 17.3392 6.38672 15C6.38672 12.6608 6.39656 12.3674 6.43867 11.4489C6.48033 10.532 6.6259 9.90601 6.83876 9.35806C7.05505 8.78334 7.39426 8.26263 7.83257 7.83257C8.26263 7.39426 8.78334 7.05528 9.35806 6.83899C9.90601 6.62613 10.532 6.48056 11.4489 6.43867C12.3674 6.39679 12.6608 6.38672 15 6.38672C17.3392 6.38672 17.6326 6.39679 18.5511 6.4389C19.468 6.48056 20.094 6.62613 20.6419 6.83876C21.2167 7.05505 21.7374 7.39426 22.1677 7.83257C22.6057 8.26286 22.9449 8.78334 23.161 9.35806C23.3741 9.90601 23.5197 10.532 23.5616 11.4489C23.6034 12.3674 23.6133 12.6608 23.6133 15C23.6133 17.3392 23.6034 17.6326 23.5613 18.5511V18.5511Z" fill="#DD2727"/>
</svg>
