<svg width="40" height="40" viewBox="0 0 40 40" fill="none" xmlns="http://www.w3.org/2000/svg">
<g clip-path="url(#clip0)">
<path d="M38.5717 1.01749e-07C38.3498 -8.36023e-05 38.131 0.0514781 37.9325 0.150667L27.107 5.5649L14.8658 0.123547C14.8457 0.115009 14.8229 0.113503 14.8015 0.104965C14.7464 0.0843738 14.6901 0.0672145 14.6329 0.0535707C14.5761 0.0382529 14.5183 0.0262832 14.46 0.0178291C14.344 0.00828681 14.2274 0.00828681 14.1115 0.0178291C14.0532 0.0262832 13.9955 0.0382529 13.9386 0.0535707C13.8815 0.0672145 13.8251 0.0843738 13.7701 0.104965C13.7486 0.113503 13.7258 0.114926 13.7058 0.123547L0.848836 5.83777C0.332717 6.06695 0.000160452 6.57872 0.000244156 7.14339V38.5715C0.000495269 39.0548 0.244995 39.5052 0.650206 39.7686C1.0555 40.0325 1.56668 40.0733 2.00872 39.8772L14.2857 34.4201L26.5626 39.8772C26.5841 39.8857 26.6069 39.8772 26.6283 39.8901C26.9742 40.0448 27.3712 40.0359 27.7097 39.8658C27.7326 39.8559 27.7583 39.8658 27.7811 39.8501L39.2095 34.1359C39.6938 33.8939 39.9997 33.3988 39.9995 32.8573V1.42925C40 0.640253 39.3607 0.000334918 38.5717 1.01749e-07ZM12.8572 31.9288L2.85731 36.3729V8.072L12.8572 3.62773V31.9288ZM25.7141 36.3729L15.7143 31.9288V3.62773L25.7141 8.07192V36.3729ZM37.1425 31.9745L28.5712 36.2601V8.02622L37.1425 3.74057V31.9745V31.9745Z" fill="#FC0000"/>
</g>
<defs>
<clipPath id="clip0">
<rect width="40" height="40" fill="white"/>
</clipPath>
</defs>
</svg>
