<svg width="40" height="40" viewBox="0 0 40 40" fill="none" xmlns="http://www.w3.org/2000/svg">
<g clip-path="url(#clip0)">
<path d="M12.7543 10.5034C13.201 10.9086 13.8822 10.9087 14.3289 10.5034L17.8168 7.33969C18.2962 6.90484 18.3324 6.16375 17.8975 5.68438C17.4627 5.20492 16.7216 5.16891 16.2422 5.60367L14.7136 6.99031V1.17188C14.7136 0.524687 14.1889 0 13.5417 0C12.8945 0 12.3698 0.524687 12.3698 1.17188V6.99031L10.8411 5.60367C10.3618 5.16891 9.62059 5.20492 9.18574 5.68438C8.7509 6.16383 8.78699 6.90484 9.26645 7.33969L12.7543 10.5034Z" fill="#FC0000"/>
<path d="M25.6711 10.5034C26.1177 10.9086 26.799 10.9087 27.2457 10.5034L30.7336 7.33969C31.213 6.90484 31.2492 6.16375 30.8144 5.68438C30.3795 5.20492 29.6383 5.16883 29.159 5.60367L27.6303 6.99031V1.17188C27.6303 0.524687 27.1056 0 26.4584 0C25.8112 0 25.2865 0.524687 25.2865 1.17188V6.99031L23.7578 5.60375C23.2783 5.16898 22.5373 5.205 22.1025 5.68445C21.6676 6.16383 21.7037 6.90492 22.1832 7.33977L25.6711 10.5034Z" fill="#FC0000"/>
<path d="M39.5995 10.1335C39.1124 9.70746 38.372 9.75722 37.946 10.2443L32.7559 16.1805H7.24455L2.05439 10.2443C1.62837 9.75707 0.88806 9.70738 0.400794 10.1335C-0.0864712 10.5595 -0.136081 11.2998 0.289935 11.7871L5.54017 17.7919V37.2657C5.54017 38.7735 6.76673 40 8.27455 40H31.7261C33.2339 40 34.4605 38.7735 34.4605 37.2657V17.7917L39.7105 11.787C40.1364 11.2998 40.0868 10.5594 39.5995 10.1335ZM32.1167 37.2657C32.1167 37.4813 31.9409 37.6563 31.726 37.6563H8.27447C8.05962 37.6563 7.88384 37.4813 7.88384 37.2657V18.5243H32.1167V37.2657Z" fill="#FC0000"/>
<path d="M22.7344 29.2969H27.9688C28.6159 29.2969 29.1406 28.7722 29.1406 28.125C29.1406 27.4778 28.6159 26.9531 27.9688 26.9531H22.7344C22.0872 26.9531 21.5625 27.4778 21.5625 28.125C21.5625 28.7722 22.0872 29.2969 22.7344 29.2969Z" fill="#FC0000"/>
<path d="M22.7344 34.375H27.9688C28.6159 34.375 29.1406 33.8503 29.1406 33.2031C29.1406 32.5559 28.6159 32.0312 27.9688 32.0312H22.7344C22.0872 32.0312 21.5625 32.5559 21.5625 33.2031C21.5625 33.8503 22.0872 34.375 22.7344 34.375Z" fill="#FC0000"/>
</g>
<defs>
<clipPath id="clip0">
<rect width="40" height="40" fill="white"/>
</clipPath>
</defs>
</svg>
