<svg width="35" height="35" viewBox="0 0 35 35" fill="none" xmlns="http://www.w3.org/2000/svg">
<g clip-path="url(#clip0)">
<path d="M30.7534 7.08654L17.5988 0.0771226C17.4037 -0.0270319 17.1698 -0.0255702 16.9761 0.0807771L4.18558 7.09019C3.9758 7.20531 3.8457 7.42531 3.8457 7.66469V16.8208C3.85338 24.3473 8.31265 31.1565 15.2088 34.1718L16.9842 34.9455C17.1501 35.0178 17.339 35.0182 17.5053 34.9462L19.5058 34.0823C26.5298 31.1323 31.0995 24.2574 31.1002 16.6391V7.66469C31.1002 7.42275 30.9668 7.20019 30.7534 7.08654V7.08654ZM29.7904 16.6391C29.7889 23.7323 25.5332 30.1325 18.9931 32.8774L18.9887 32.8796L17.2465 33.6317L15.7328 32.9713C9.31363 30.1646 5.16244 23.8269 5.15513 16.8208V8.05243L17.2952 1.39897L29.7904 8.05718V16.6391Z" fill="#FC0000"/>
<path d="M12.4638 16.3963C12.2288 16.1211 11.8154 16.0886 11.5403 16.3236C11.2651 16.5582 11.2325 16.9719 11.4675 17.2467L14.9269 21.2978C15.1579 21.5682 15.5624 21.6051 15.838 21.3807L23.8948 14.826C24.1755 14.5979 24.2179 14.1853 23.9894 13.9046C23.7614 13.6243 23.3488 13.5816 23.0681 13.81L15.5076 19.9606L12.4638 16.3963Z" fill="#FC0000"/>
</g>
<defs>
<clipPath id="clip0">
<rect width="35" height="35" fill="white"/>
</clipPath>
</defs>
</svg>
