<svg width="135" height="25" viewBox="0 0 135 25" fill="none" xmlns="http://www.w3.org/2000/svg">
<g clip-path="url(#clip0)">
<path d="M20.4013 9.59008C20.2673 9.08386 19.8999 8.72431 19.4654 8.67643L13.5616 8.02125L11.2271 1.34287C11.055 0.85344 10.663 0.536621 10.2274 0.536621C9.79182 0.536621 9.3998 0.85344 9.22766 1.34402L6.89316 8.02125L0.98848 8.67643C0.554634 8.72546 0.188205 9.08386 0.053526 9.59008C-0.0811537 10.0963 0.043226 10.6515 0.37142 11.0016L4.83395 15.7849L3.51805 22.8696C3.42177 23.3905 3.58719 23.929 3.94082 24.2414C4.1309 24.4092 4.35329 24.4946 4.57754 24.4946C4.7709 24.4946 4.9627 24.431 5.13484 24.3051L10.2274 20.5851L15.318 24.3051C15.6906 24.579 16.1601 24.554 16.513 24.2414C16.8668 23.928 17.0321 23.3894 16.9358 22.8696L15.6199 15.7849L20.0824 11.0025C20.4106 10.6515 20.536 10.0973 20.4013 9.59008Z" fill="#FFC107"/>
<path d="M49.0375 9.59008C48.9035 9.08386 48.5362 8.72431 48.1016 8.67643L42.1978 8.02125L39.8634 1.34287C39.6912 0.85344 39.2992 0.536621 38.8636 0.536621C38.4281 0.536621 38.036 0.85344 37.8639 1.34402L35.5294 8.02125L29.6247 8.67643C29.1909 8.72546 28.8244 9.08386 28.6897 9.59008C28.5551 10.0963 28.6795 10.6515 29.0077 11.0016L33.4702 15.7849L32.1543 22.8696C32.058 23.3905 32.2235 23.929 32.577 24.2414C32.7672 24.4092 32.9895 24.4946 33.2138 24.4946C33.4072 24.4946 33.5989 24.431 33.7711 24.3051L38.8636 20.5851L43.9543 24.3051C44.3268 24.579 44.7964 24.554 45.1492 24.2414C45.5031 23.928 45.6683 23.3894 45.572 22.8696L44.2562 15.7849L48.7186 11.0025C49.0468 10.6515 49.1722 10.0973 49.0375 9.59008Z" fill="#FFC107"/>
<path d="M77.674 9.59008C77.54 9.08386 77.1727 8.72431 76.7381 8.67643L70.8343 8.02125L68.4998 1.34287C68.3277 0.85344 67.9357 0.536621 67.5001 0.536621C67.0645 0.536621 66.6725 0.85344 66.5004 1.34402L64.1659 8.02125L58.2612 8.67643C57.8274 8.72546 57.4609 9.08386 57.3262 9.59008C57.1915 10.0963 57.316 10.6515 57.6442 11.0016L62.1067 15.7849L60.7908 22.8696C60.6945 23.3905 60.86 23.929 61.2135 24.2414C61.4036 24.4092 61.626 24.4946 61.8503 24.4946C62.0437 24.4946 62.2354 24.431 62.4075 24.3051L67.5001 20.5851L72.5907 24.3051C72.9633 24.579 73.4329 24.554 73.7857 24.2414C74.1396 23.928 74.3048 23.3894 74.2085 22.8696L72.8926 15.7849L77.3551 11.0025C77.6833 10.6515 77.8087 10.0973 77.674 9.59008Z" fill="#FFC107"/>
<path d="M106.31 9.59008C106.176 9.08386 105.809 8.72431 105.375 8.67643L99.4705 8.02125L97.1361 1.34287C96.9639 0.85344 96.5719 0.536621 96.1363 0.536621C95.7008 0.536621 95.3088 0.85344 95.1366 1.34402L92.8021 8.02125L86.8974 8.67643C86.4636 8.72546 86.0971 9.08386 85.9625 9.59008C85.8278 10.0963 85.9522 10.6515 86.2804 11.0016L90.7429 15.7849L89.4271 22.8696C89.3307 23.3905 89.4962 23.929 89.8497 24.2414C90.0399 24.4092 90.2622 24.4946 90.4865 24.4946C90.6799 24.4946 90.8716 24.431 91.0438 24.3051L96.1363 20.5851L101.227 24.3051C101.6 24.579 102.069 24.554 102.422 24.2414C102.776 23.928 102.941 23.3894 102.844 22.8696L101.529 15.7849L105.991 11.0025C106.32 10.6515 106.445 10.0973 106.31 9.59008Z" fill="#FFC107"/>
<path d="M134.947 9.59008C134.813 9.08386 134.446 8.72431 134.011 8.67643L128.107 8.02125L125.773 1.34287C125.6 0.85344 125.208 0.536621 124.773 0.536621C124.337 0.536621 123.945 0.85344 123.773 1.34402L121.439 8.02125L115.534 8.67643C115.1 8.72546 114.734 9.08386 114.599 9.59008C114.465 10.0963 114.588 10.6515 114.917 11.0016L119.38 15.7849L118.064 22.8696C117.967 23.3905 118.132 23.929 118.486 24.2414C118.676 24.4092 118.899 24.4946 119.123 24.4946C119.316 24.4946 119.508 24.431 119.681 24.3051L124.773 20.5851L129.864 24.3051C130.236 24.579 130.706 24.554 131.058 24.2414C131.412 23.928 131.578 23.3894 131.481 22.8696L130.166 15.7849L134.628 11.0025C134.956 10.6515 135.082 10.0973 134.947 9.59008Z" fill="#FFC107"/>
</g>
<defs>
<clipPath id="clip0">
<rect width="135" height="25" fill="white"/>
</clipPath>
</defs>
</svg>
