<svg width="60" height="60" viewBox="0 0 60 60" fill="none" xmlns="http://www.w3.org/2000/svg">
<path d="M30.1519 0.000468749C30.1498 0.000468749 30.1478 0.000468749 30.1457 0.000351562C30.1361 0.000351562 30.1266 0 30.1171 0C30.1157 0 30.1143 0 30.1129 0C30.1092 0 30.1053 0.000117187 30.1015 0.000117187C13.5686 0.00855467 0 13.3889 0 29.8828C0 33.9159 0.803319 37.8435 2.38781 41.5567C5.45542 48.7459 11.2386 54.5378 18.4431 57.612C22.1558 59.1962 26.083 59.9997 30.1155 59.9998C30.1165 59.9998 30.1176 60 30.1187 60C30.1213 60 30.1242 59.9998 30.1269 59.9996C46.7148 59.9944 59.9999 46.3272 59.9999 29.8828C59.9999 13.3915 46.6689 0.0191015 30.1519 0.000468749ZM24.2949 4.15347C21.2971 6.99549 18.8478 10.3241 17.0034 14.0625H8.8494C12.589 9.13592 18.0277 5.54589 24.2949 4.15347ZM6.596 17.5547H15.5012C14.2715 20.9234 13.5445 24.5141 13.3569 28.1249H3.5762C3.82898 24.3365 4.89245 20.7413 6.596 17.5547ZM6.66221 42.4218C4.9173 39.171 3.82945 35.5179 3.57527 31.6406H13.3449C13.5127 35.3315 14.2452 38.9801 15.5014 42.4218H6.66221ZM8.92135 45.9374H17.0034C18.8443 49.6689 21.2902 52.9963 24.2871 55.839C18.0629 54.4418 12.657 50.8573 8.92135 45.9374ZM16.8657 31.6406H28.3592V42.4218H19.2921C17.8884 39.04 17.0543 35.4 16.8657 31.6406ZM28.3594 54.7399C25.3707 52.2515 22.8927 49.2632 21.0082 45.9374H28.3593V54.7399H28.3594ZM28.3594 28.1249H16.8775C17.0884 24.4484 17.9177 20.8896 19.2923 17.5781H28.3594V28.1249V28.1249ZM28.3594 14.0625H21.0084C22.8928 10.7367 25.3708 7.74842 28.3594 5.25983V14.0625V14.0625ZM53.431 17.5781C55.1196 20.7648 56.1736 24.3365 56.4243 28.1249H46.8773C46.6896 24.5141 45.9626 20.9469 44.733 17.5781H53.431ZM51.1976 14.0625H43.231C41.3915 10.3339 38.9482 7.00909 35.955 4.168C42.1388 5.5712 47.5041 9.1535 51.1976 14.0625ZM31.8751 5.26054C34.8637 7.74913 37.3427 10.7367 39.227 14.0625H31.8751V5.26054ZM31.8749 17.5781H40.9443C42.3187 20.8893 43.1461 24.4487 43.3569 28.1249H31.8749V17.5781ZM43.3696 31.6171C43.1812 35.3764 42.3478 39.0402 40.9443 42.4218H31.8749V31.6171H43.3696ZM31.8751 54.7393V45.914H39.227C37.3427 49.2397 34.8637 52.2506 31.8751 54.7393ZM35.963 55.8243C38.9502 52.9872 41.3918 49.6418 43.2309 45.914H51.1261C47.4369 50.8159 42.1042 54.4163 35.963 55.8243ZM44.7331 42.4218C45.9893 38.9801 46.7217 35.3081 46.8896 31.6171H56.4253C56.1734 35.4945 55.0951 39.171 53.3656 42.4218H44.7331Z" fill="#FC0000"/>
</svg>
