<svg width="40" height="40" viewBox="0 0 40 40" fill="none" xmlns="http://www.w3.org/2000/svg">
<path d="M20.1013 0.000312499C20.0999 0.000312499 20.0986 0.000312499 20.0971 0.000234375C20.0907 0.000234375 20.0844 0 20.0781 0C20.0771 0 20.0762 0 20.0753 0C20.0728 0 20.0702 7.81249e-05 20.0677 7.81249e-05C9.04576 0.00570311 0 8.92592 0 19.9218C0 22.6106 0.535546 25.229 1.59187 27.7045C3.63695 32.4973 7.49241 36.3585 12.2954 38.408C14.7705 39.4641 17.3886 39.9998 20.077 39.9998C20.0777 39.9998 20.0784 40 20.0791 40C20.0809 40 20.0828 39.9998 20.0846 39.9998C31.1432 39.9963 39.9999 30.8848 39.9999 19.9218C39.9999 8.92764 31.1126 0.0127344 20.1013 0.000312499ZM16.1966 2.76898C14.1981 4.66366 12.5652 6.88272 11.3356 9.37498H5.8996C8.39264 6.09061 12.0185 3.69726 16.1966 2.76898ZM4.39734 11.7031H10.3341C9.51436 13.949 9.02967 16.3427 8.90459 18.75H2.38414C2.55265 16.2243 3.26163 13.8276 4.39734 11.7031ZM4.44148 28.2812C3.2782 26.114 2.55296 23.6786 2.38351 21.0937H8.89662C9.0085 23.5543 9.49678 25.9867 10.3343 28.2812H4.44148ZM5.94757 30.6249H11.3356C12.5629 33.1126 14.1935 35.3309 16.1914 37.226C12.0419 36.2945 8.43803 33.9049 5.94757 30.6249ZM11.2438 21.0937H18.9061V28.2812H12.8614C11.9256 26.0267 11.3695 23.6 11.2438 21.0937ZM18.9063 36.4933C16.9138 34.8343 15.2618 32.8421 14.0054 30.6249H18.9062V36.4933H18.9063ZM18.9063 18.75H11.2517C11.3922 16.299 11.9451 13.9264 12.8615 11.7187H18.9063V18.75V18.75ZM18.9063 9.37498H14.0056C15.2618 7.1578 16.9139 5.16562 18.9063 3.50656V9.37498V9.37498ZM35.6206 11.7187C36.7464 13.8432 37.4491 16.2243 37.6162 18.75H31.2515C31.1264 16.3427 30.6417 13.9646 29.822 11.7187H35.6206ZM34.1317 9.37498H28.8206C27.5943 6.88928 25.9655 4.67273 23.97 2.77867C28.0925 3.71413 31.6694 6.10233 34.1317 9.37498ZM21.25 3.50702C23.2425 5.16608 24.8951 7.1578 26.1514 9.37498H21.25V3.50702ZM21.25 11.7187H27.2962C28.2124 13.9262 28.7641 16.2991 28.9046 18.75H21.25V11.7187ZM28.9131 21.0781C28.7874 23.5843 28.2319 26.0268 27.2962 28.2812H21.25V21.0781H28.9131ZM21.25 36.4929V30.6093H26.1514C24.8951 32.8265 23.2425 34.8338 21.25 36.4929ZM23.9753 37.2162C25.9668 35.3248 27.5946 33.0945 28.8206 30.6093H34.0841C31.6246 33.8773 28.0695 36.2775 23.9753 37.2162ZM29.8221 28.2812C30.6596 25.9867 31.1478 23.5387 31.2597 21.0781H37.6169C37.4489 23.663 36.7301 26.114 35.577 28.2812H29.8221Z" fill="#FC0000"/>
</svg>
